PathFileType	4	(X/Y/Z)	../Python\walking\Walking03\task.trc
DataRate	CameraRate	NumFrames	NumMarkers	Units	OrigDataRate	OrigDataStartFrame	OrigNumFrames
200.000000	200.000000	6	30	mm	200.000000	419	671
Frame#	Time	CLAV			STRN			RASI			LASI			RTH1			RTH2			RTH3			RTB1			RTB2			RTB3			RD5M			RTOE			LTH1			LTH2			LTB1			LTB2			LTB3			LTOE			LD5M			LTH3			RHEE			RPSI			T10			PE03			PE02			PE01			C7			LPSI			LHEE			RBAK			
		X1	Y1	Z1	X2	Y2	Z2	X3	Y3	Z3	X4	Y4	Z4	X5	Y5	Z5	X6	Y6	Z6	X7	Y7	Z7	X8	Y8	Z8	X9	Y9	Z9	X10	Y10	Z10	X11	Y11	Z11	X12	Y12	Z12	X13	Y13	Z13	X14	Y14	Z14	X15	Y15	Z15	X16	Y16	Z16	X17	Y17	Z17	X18	Y18	Z18	X19	Y19	Z19	X20	Y20	Z20	X21	Y21	Z21	X22	Y22	Z22	X23	Y23	Z23	X24	Y24	Z24	X25	Y25	Z25	X26	Y26	Z26	X27	Y27	Z27	X28	Y28	Z28	X29	Y29	Z29	X30	Y30	Z30	

420	2.095	1425.879638671875	1416.632446289063	205.2548980712892	1484.096069335938	1226.017822265625	219.427459716797	1468.111572265625	998.135375976563	366.5106506347657	1475.480224609375	1015.417846679688	89.81715393066409	1372.333740234375	744.7885742187502	401.2092590332034	1310.441162109375	738.4788208007815	395.8218688964846	1317.0263671875	690.296569824219	382.0327453613282	1181.609130859375	379.9238281250001	346.3056030273439	1120.65966796875	370.2680664062501	346.7380676269532	1128.77783203125	320.8106994628907	339.449920654297	994.9746704101567	35.63862228393556	342.5256652832032	1047.775146484375	30.17981147766115	300.9420776367189	1458.944213867188	711.5865478515627	53.90846633911136	1443.624267578125	665.8848266601565	67.56182098388675	1533.437866210938	353.8132934570314	90.97748565673831	1511.528076171875	310.8088684082032	103.2687301635743	1566.997802734376	283.2787475585939	101.1384658813477	1744.196533203126	34.47670364379884	161.7307739257813	1698.684448242188	19.05518341064454	115.6174392700196	1502.21044921875	647.310485839844	68.44885253906253	897.8781738281255	162.3531494140626	268.420867919922	1304.250122070313	1053.143432617188	276.0154418945314	1256.140747070313	1244.669067382813	216.6134033203126	1294.492065429688	1043.802001953125	201.0902709960939	1298.405517578125	1041.282470703125	252.0880279541017	1308.357299804688	1102.597778320313	228.0402069091798	1309.316284179688	1508.948608398438	194.7450561523439	1299.67919921875	1057.632446289063	175.3222351074219	1531.811767578125	35.00446701049806	177.1371307373047	1296.007568359375	1424.828125	374.4527282714845	
421	2.1	1432.472778320313	1417.383178710938	204.5629425048829	1490.947021484375	1226.950561523438	218.8346557617189	1475.322021484375	998.2167358398442	365.243865966797	1482.100463867188	1017.047546386719	88.96520996093753	1381.346313476563	744.1453857421877	399.8344726562502	1319.517333984375	737.3460693359377	394.3196411132815	1326.521850585938	689.165954589844	380.8103942871095	1191.375854492188	379.5994873046876	346.2142333984376	1130.297485351563	370.9495849609376	346.6167297363282	1137.638427734375	321.3369750976564	339.6146240234376	997.4602050781255	37.90892028808595	342.4922485351564	1048.34033203125	30.60769271850587	300.668670654297	1465.539306640625	712.9700927734377	52.83172607421878	1450.063232421875	667.2647094726565	66.10813903808597	1536.493774414063	354.3923645019532	90.66284942626956	1514.138549804688	311.5871887207032	102.9193115234376	1569.400024414063	283.5680236816407	101.0779418945313	1744.548950195313	34.37441253662111	162.0076293945313	1698.752685546876	19.24645423889161	115.5328674316407	1508.687377929688	648.6549072265627	67.70734405517581	904.536010742188	167.8578033447266	269.2823791503907	1311.323486328125	1053.617309570313	275.8774719238282	1263.004028320313	1245.181518554688	216.2910461425782	1301.370483398438	1044.600830078125	200.887176513672	1305.38330078125	1041.834594726563	251.8557434082032	1315.128295898438	1103.289794921875	228.0867156982423	1315.771606445313	1509.479614257813	194.0463104248048	1306.471069335938	1058.616577148438	175.1776428222657	1531.938598632813	35.12635421752931	177.2645263671876	1302.6767578125	1425.655517578125	373.813201904297	
422	2.105	1439.053466796875	1418.147338867188	203.8890533447267	1497.750732421875	1227.881469726563	218.2552490234376	1482.400268554688	998.3424682617192	363.9993286132814	1488.664794921875	1018.658569335938	88.1215515136719	1390.407958984375	743.4997558593752	398.4531555175784	1328.660034179688	736.139587402344	392.7979431152346	1336.139526367188	687.9648437500002	379.5941162109376	1201.4873046875	379.203094482422	346.1199035644532	1140.296875	371.5555114746095	346.5235595703126	1146.853393554688	321.8082275390626	339.7613220214845	1000.331604003907	40.37334060668947	342.4631958007814	1049.207275390625	31.18802070617677	300.3922729492189	1472.142700195313	714.277038574219	51.7289733886719	1456.483642578125	668.600769042969	64.66632843017581	1539.310668945313	354.9149780273439	90.35711669921878	1516.550048828125	312.303924560547	102.6083602905274	1571.611694335938	283.8228759765626	100.9756774902344	1744.826660156251	34.31987380981447	162.2117004394532	1698.766357421876	19.41447830200196	115.4495086669922	1515.117797851563	649.8791503906252	66.96170806884768	911.5979003906255	173.4109649658204	270.2113342285157	1318.287353515625	1054.087890625	275.7120361328126	1269.820678710938	1245.735595703125	215.9533233642579	1308.167846679688	1045.380004882813	200.6593475341798	1312.262939453125	1042.381591796875	251.5991668701173	1321.810791015625	1103.968872070313	228.0988922119142	1322.223022460938	1510.036376953125	193.3565979003907	1313.188842773438	1059.580444335938	175.0128936767579	1532.013671875	35.20529174804689	177.387435913086	1309.327758789063	1426.512329101563	373.1818237304689	
423	2.11	1445.619750976563	1418.920043945313	203.2341613769532	1504.5048828125	1228.803344726563	217.6901397705079	1489.342895507813	998.508422851563	362.7861328125001	1495.17578125	1020.236328125	87.2885437011719	1399.506103515625	742.8559570312502	397.0734558105471	1337.858154296875	734.8657836914065	391.2622070312502	1345.867065429688	686.7006835937502	378.3887634277345	1211.927978515625	378.7417602539064	346.0171203613282	1150.642578125	372.0881958007814	346.4579467773439	1156.41064453125	322.2276306152345	339.8821716308595	1003.614868164063	43.02931213378908	342.4439086914064	1050.444458007813	31.93947410583498	300.1302185058595	1478.691650390625	715.4907836914065	50.61640548706058	1462.810668945313	669.8784179687502	63.25378417968753	1541.903808593751	355.373260498047	90.05002593994143	1518.77685546875	312.9514160156251	102.3244323730469	1573.645996093751	284.0360412597657	100.8283996582032	1745.046508789063	34.29001617431642	162.349838256836	1698.739868164063	19.54693412780762	115.3637771606446	1521.417358398438	650.957458496094	66.2223815917969	919.0524291992192	178.9897155761719	271.1920166015626	1325.139892578125	1054.54833984375	275.5131835937501	1276.588012695313	1246.326782226563	215.5967864990236	1314.882202148438	1046.13232421875	200.4015197753907	1319.043334960938	1042.917114257813	251.3135375976564	1328.406005859375	1104.627807617188	228.0707092285157	1328.66943359375	1510.615478515625	192.6760406494142	1319.831909179688	1060.515258789063	174.8218383789063	1532.046508789063	35.25060653686525	177.5028839111329	1315.9560546875	1427.391845703125	372.557830810547	
424	2.115	1452.170043945313	1419.696533203125	202.5990142822267	1511.207397460938	1229.709716796875	217.1401519775392	1496.149047851563	998.710571289063	361.6128845214845	1501.63671875	1021.767517089844	86.46863555908206	1408.627563476563	742.2192993164065	395.7039184570315	1347.10009765625	733.533386230469	389.7182922363284	1355.6904296875	685.3836059570315	377.1986694335939	1222.680053710938	378.2249755859376	345.9004211425782	1161.316650390625	372.5524902343751	346.4180603027345	1166.295532226563	322.6005859375001	339.9696350097657	1007.333129882813	45.87135696411134	342.4406738281251	1052.12109375	32.87745666503908	299.9019470214845	1485.12060546875	716.6003417968752	49.5113334655762	1468.970336914063	671.0866699218752	61.88653182983401	1544.293212890626	355.7622985839845	89.73175048828128	1520.836303710938	313.5255737304689	102.0555114746094	1575.517822265626	284.2022399902345	100.635238647461	1745.223510742188	34.26731491088869	162.4305114746094	1698.686157226563	19.63700675964356	115.2729187011719	1527.504516601563	651.8737792968752	65.49826812744143	926.8860473632817	184.5693664550782	272.2027893066407	1331.880493164063	1054.99267578125	275.2752380371095	1283.303588867188	1246.950073242188	215.2181549072267	1321.512817382813	1046.851684570313	200.108856201172	1325.724365234375	1043.435668945313	250.9944458007814	1334.91650390625	1105.260620117188	227.9968414306642	1335.109252929688	1511.213623046875	192.0046691894532	1326.400146484375	1061.41357421875	174.5987243652344	1532.046508789063	35.27108001708986	177.6083526611329	1322.55712890625	1428.286743164063	371.9404296875001	
425	2.12	1458.702758789063	1420.472534179688	201.9841918945314	1517.856567382813	1230.594604492188	216.6060485839845	1502.819091796875	998.944702148438	360.4874877929689	1508.050537109375	1023.240173339844	85.66424560546878	1417.7587890625	741.5959472656252	394.3531494140627	1356.3740234375	732.153015136719	388.172546386719	1365.5947265625	684.0261840820315	376.0277404785157	1233.723266601563	377.6645812988282	345.7646789550782	1172.298461914063	372.9557495117189	346.4009399414064	1176.4912109375	322.9344177246095	340.0169067382814	1011.506652832032	48.89106369018558	342.4603881835939	1054.30517578125	34.01295089721681	299.7279052734376	1491.366821289063	717.6000976562502	48.43085098266604	1474.89453125	672.2185058593752	60.57831192016604	1546.502197265626	356.0803222656251	89.39363098144534	1522.7470703125	314.0258178710939	101.7902374267579	1577.243652343751	284.3182373046876	100.3973083496094	1745.370361328126	34.23934173583986	162.4629821777344	1698.616455078126	19.68245887756348	115.1750030517579	1533.30712890625	652.6219482421877	64.7958679199219	935.0839233398442	190.1236267089844	273.2167358398439	1338.510131835938	1055.415771484375	274.9933471679689	1289.965576171875	1247.600830078125	214.8144531250001	1328.0595703125	1047.533447265625	199.7771301269532	1332.30712890625	1043.9326171875	250.6380767822267	1341.345703125	1105.8623046875	227.8728332519532	1341.541137695313	1511.827758789063	191.3424224853516	1332.89404296875	1062.269409179688	174.338363647461	1532.022338867188	35.2745933532715	177.7018127441407	1329.126831054688	1429.190185546875	371.3287048339845	
